# xmcd CD database file
#
# Track frame offsets:
#	150
#	25064
#	45152
#	69036
#	91399
#	111011
#	133244
#	154389
#	175760
#	201921
#	224088
#	252167
#
# Disc length: 3656 seconds
#
# Revision: 0
# Processed by: cddbd v1.4PL0 Copyright (c) Steve Scherf et al.
# Submitted via: CDex 1.51
#
DISCID=a30e460c
DTITLE=MPath - Wanderer
DYEAR=1900
DGENRE=New Age
TTITLE0=Journey Of The Mystic
TTITLE1=Wanderer
TTITLE2=Maha Deva
TTITLE3=Shabad
TTITLE4=Walk By The Narmada
TTITLE5=Alma
TTITLE6=Sahaj
TTITLE7=Waning Mon
TTITLE8=Tibetain Ram
TTITLE9=Surya Namaskar
TTITLE10=Guru
TTITLE11=Bonus Trk- Tibetian Ram
EXTD=
EXTT0=
EXTT1=
EXTT2=
EXTT3=
EXTT4=
EXTT5=
EXTT6=
EXTT7=
EXTT8=
EXTT9=
EXTT10=
EXTT11=
PLAYORDER=
